<?xml version="1.0" standalone="no"?>
<!DOCTYPE svg PUBLIC "-//W3C//DTD SVG 20010904//EN"
 "http://www.w3.org/TR/2001/REC-SVG-20010904/DTD/svg10.dtd">
<svg version="1.0" xmlns="http://www.w3.org/2000/svg"
 width="2000.000000pt" height="2000.000000pt" viewBox="0 0 2000.000000 2000.000000"
 preserveAspectRatio="xMidYMid meet">
<metadata>
Created by potrace 1.11, written by Peter Selinger 2001-2013
</metadata>
<g transform="translate(0.000000,2000.000000) scale(0.100000,-0.100000)"
fill="#000000" stroke="none">
<path d="M1792 18120 c-486 -487 -889 -894 -897 -905 -11 -17 -15 -701 -20
-4300 -5 -3962 -10 -6452 -16 -8993 l-3 -1013 906 -906 906 -906 7141 -1 7141
-1 896 896 897 897 1 7155 1 7156 -879 875 c-715 712 -885 877 -910 880 -17 3
-1385 8 -3041 11 -1655 3 -3469 7 -4030 10 -561 2 -1679 7 -2485 10 -3069 11
-4519 17 -4620 19 l-105 2 -883 -886z m13368 -8091 l0 -5349 -5349 0 -5348 0
0 5349 0 5348 5348 0 5349 0 0 -5348z"/>
</g>
</svg>
