<?xml version="1.0" standalone="no"?>
<!DOCTYPE svg PUBLIC "-//W3C//DTD SVG 20010904//EN"
 "http://www.w3.org/TR/2001/REC-SVG-20010904/DTD/svg10.dtd">
<svg version="1.0" xmlns="http://www.w3.org/2000/svg"
 width="700.000000pt" height="700.000000pt" viewBox="0 0 700.000000 700.000000"
 preserveAspectRatio="xMidYMid meet">
<metadata>
Created by potrace 1.11, written by Peter Selinger 2001-2013
</metadata>
<g transform="translate(0.000000,700.000000) scale(0.100000,-0.100000)"
fill="#000000" stroke="none">
<path d="M1471 5862 c-14 -5 -14 -1229 -1 -1237 6 -4 7 -12 3 -18 -4 -7 -9
-792 -10 -1744 l-3 -1733 27 0 c220 -4 783 -4 784 0 1 3 2 335 3 738 3 706 4
734 22 752 10 10 73 52 139 92 66 41 327 203 581 361 303 189 470 287 488 287
16 0 98 -45 221 -122 107 -68 203 -127 213 -133 26 -15 202 -124 332 -207 129
-82 286 -181 305 -191 87 -52 134 -89 142 -114 4 -15 8 -351 8 -746 l-1 -717
20 -1 c28 -1 688 -1 747 0 l46 1 1 1734 c1 1630 1 1736 -16 1755 -18 21 -348
231 -363 231 -5 0 -9 3 -9 8 0 4 -10 12 -23 18 -12 6 -170 104 -351 217 -181
114 -331 207 -333 207 -2 0 -9 5 -16 10 -15 13 -224 146 -252 160 -11 6 -32
18 -47 28 -160 101 -314 198 -323 201 -5 2 -31 19 -57 38 -26 18 -51 33 -54
33 -4 0 -21 10 -38 23 -17 13 -38 27 -46 30 -8 4 -28 16 -45 26 -66 42 -78 37
-425 -184 -36 -23 -139 -88 -230 -144 -303 -188 -465 -289 -485 -303 -33 -24
-142 -88 -148 -88 -3 0 -6 136 -7 303 -3 407 -3 427 -15 428 -24 3 -776 4
-784 1z m2125 -1014 c39 -24 235 -146 437 -273 202 -126 375 -234 384 -240 67
-37 283 -178 294 -192 11 -13 14 -72 14 -280 1 -144 -1 -263 -2 -263 -2 0 -65
38 -139 85 -75 47 -140 85 -145 85 -5 0 -9 4 -9 9 0 5 -8 11 -17 15 -10 3 -30
14 -45 23 -51 33 -633 398 -650 408 -10 6 -55 33 -101 62 -88 55 -126 65 -167
43 -23 -12 -405 -250 -490 -305 -72 -46 -680 -425 -682 -425 -6 0 -1 497 5
522 5 20 42 47 164 123 87 54 181 112 208 130 28 17 143 90 258 161 114 71
220 137 235 146 15 10 38 24 52 32 14 8 83 51 154 95 71 45 138 81 150 81 12
0 54 -19 92 -42z"/>
<path d="M3099 2358 c-4 -64 -1 -1220 4 -1224 4 -4 719 -8 795 -5 12 1 13 102
11 594 -2 325 -6 604 -8 620 l-3 27 -399 0 c-312 0 -399 -3 -400 -12z"/>
</g>
</svg>
